<svg width="512" height="512" xmlns="http://www.w3.org/2000/svg">
 <!-- Created with UXWing SVG Editor - https://uxwing.com/svg-icon-editor/ -->

 <g>
  <title>background</title>
  <rect fill="none" id="canvas_background" height="514" width="514" y="-1" x="-1"/>
  <g display="none" overflow="visible" y="0" x="0" height="100%" width="100%" id="canvasGrid">
   <rect fill="url(#gridpattern)" stroke-width="0" y="0" x="0" height="100%" width="100%"/>
  </g>
 </g>
 <g>
  <title>Layer 1</title>
  <g id="svg_5">
   <path style="--darkreader-inline-fill:#3f5a47;" fill="#92ad94" id="svg_4" d="m179.401188,410.253776c-20.137261,-18.339292 -8.989849,-47.466402 24.092795,-64.726911c11.147412,-5.393909 19.418073,-7.911067 33.801831,-7.551473c8.989849,0.359594 19.058479,5.393909 19.058479,5.393909c0,-65.086505 -0.359594,-188.067637 -0.359594,-248.479421c3.59594,0 6.113097,-0.359594 11.147412,-0.359594c0,3.59594 0,6.472691 0,9.349443c0,3.236346 0,5.034315 0.359594,7.191879c3.59594,22.654419 8.630255,31.644268 33.801831,59.333002c32.003862,35.599801 41.353304,56.815844 41.353304,85.223767c-0.359594,26.609952 -23.733201,83.425797 -28.767516,81.268233c7.191879,-20.137261 17.26051,-41.712898 19.777667,-59.692596c3.236346,-21.935231 -5.753503,-52.860311 -20.137261,-69.042039c-11.507006,-13.66457 -38.836147,-25.531171 -46.38762,-25.531171c0,0 -0.359594,130.892198 -0.359594,180.516164c0,8.270661 -7.551473,23.014013 -11.8666,28.048328c-19.777667,23.733201 -58.25422,34.521019 -75.51473,19.058479z"/>
  </g>
 </g>
</svg>