<svg id="visual" viewBox="0 0 960 540" width="960" height="540" xmlns="http://www.w3.org/2000/svg" xmlns:xlink="http://www.w3.org/1999/xlink" version="1.1"><rect x="0" y="0" width="960" height="540" fill="#503D42"></rect><defs><linearGradient id="grad1_0" x1="43.8%" y1="0%" x2="100%" y2="100%"><stop offset="14.444444444444446%" stop-color="#84c318" stop-opacity="1"></stop><stop offset="85.55555555555554%" stop-color="#84c318" stop-opacity="1"></stop></linearGradient></defs><defs><linearGradient id="grad1_1" x1="43.8%" y1="0%" x2="100%" y2="100%"><stop offset="14.444444444444446%" stop-color="#84c318" stop-opacity="1"></stop><stop offset="85.55555555555554%" stop-color="#503d42" stop-opacity="1"></stop></linearGradient></defs><defs><linearGradient id="grad2_0" x1="0%" y1="0%" x2="56.3%" y2="100%"><stop offset="14.444444444444446%" stop-color="#84c318" stop-opacity="1"></stop><stop offset="85.55555555555554%" stop-color="#84c318" stop-opacity="1"></stop></linearGradient></defs><defs><linearGradient id="grad2_1" x1="0%" y1="0%" x2="56.3%" y2="100%"><stop offset="14.444444444444446%" stop-color="#503d42" stop-opacity="1"></stop><stop offset="85.55555555555554%" stop-color="#84c318" stop-opacity="1"></stop></linearGradient></defs><g transform="translate(960, 0)"><path d="M0 459C-36.4 424.3 -72.8 389.5 -124.5 383.3C-176.3 377 -243.4 399.2 -269.8 371.3C-296.1 343.4 -281.7 265.4 -305 221.6C-328.3 177.8 -389.4 168.1 -421.3 136.9C-453.3 105.7 -456.1 52.8 -459 0L0 0Z" fill="#a96733"></path><path d="M0 229.5C-18.2 212.1 -36.4 194.8 -62.3 191.6C-88.1 188.5 -121.7 199.6 -134.9 185.7C-148.1 171.7 -140.8 132.7 -152.5 110.8C-164.2 88.9 -194.7 84.1 -210.7 68.4C-226.6 52.8 -228.1 26.4 -229.5 0L0 0Z" fill="#84c318"></path></g><g transform="translate(0, 540)"><path d="M0 -459C36.5 -415.5 73.1 -372 116.5 -358.5C159.9 -345.1 210.3 -361.5 256.3 -352.7C302.3 -343.9 343.9 -309.8 371.3 -269.8C398.8 -229.8 411.9 -183.8 424.2 -137.8C436.4 -91.9 447.7 -45.9 459 0L0 0Z" fill="#a96733"></path><path d="M0 -229.5C18.3 -207.8 36.5 -186 58.2 -179.3C80 -172.5 105.1 -180.8 128.1 -176.4C151.1 -172 172 -154.9 185.7 -134.9C199.4 -114.9 206 -91.9 212.1 -68.9C218.2 -45.9 223.9 -23 229.5 0L0 0Z" fill="#84c318"></path></g></svg>